<svg xmlns="http://www.w3.org/2000/svg" version="1.1" xmlns:xlink="http://www.w3.org/1999/xlink" xmlns:svgjs="http://svgjs.dev/svgjs" width="1500" height="401" viewBox="0 0 1500 401"><g transform="matrix(1,0,0,1,-0.9090909090909918,-0.6776437594946856)"><svg viewBox="0 0 396 106" data-background-color="#444444" preserveAspectRatio="xMidYMid meet" height="401" width="1500" xmlns="http://www.w3.org/2000/svg" xmlns:xlink="http://www.w3.org/1999/xlink"><g id="tight-bounds" transform="matrix(1,0,0,1,0.2400000000000091,0.17912777682403203)"><svg viewBox="0 0 395.52 105.64174444635195" height="105.64174444635195" width="395.52"><g><svg viewBox="0 0 395.52 105.64174444635195" height="105.64174444635195" width="395.52"><g><svg viewBox="0 0 560.6580783378095 149.74943728141596" height="105.64174444635195" width="395.52"><g transform="matrix(1,0,0,1,165.13807833780947,42.28216146337204)"><svg viewBox="0 0 395.52 65.18511435467188" height="65.18511435467188" width="395.52"><g id="textblocktransform"><svg viewBox="0 0 395.52 65.18511435467188" height="65.18511435467188" width="395.52" id="textblock"><g><svg viewBox="0 0 395.52 65.18511435467188" height="65.18511435467188" width="395.52"><g transform="matrix(1,0,0,1,0,0)"><svg width="395.52" viewBox="4.49 -35.01 212.41 35.01" height="65.18511435467188" data-palette-color="#ffffff"><path d="M9.5-5L22.29-5Q25.78-5 27.66-6.88 29.54-8.76 29.54-12.26L29.54-12.26 29.54-22.75Q29.54-24.46 29.05-25.81 28.56-27.15 27.62-28.09 26.68-29.03 25.34-29.52 24-30 22.29-30L22.29-30 9.5-30 9.5-5ZM22.29 0L4.49 0 4.49-35.01 22.29-35.01Q25.1-35.01 27.36-34.14 29.61-33.28 31.21-31.68 32.81-30.08 33.68-27.81 34.55-25.54 34.55-22.75L34.55-22.75 34.55-12.26Q34.55-9.47 33.68-7.2 32.81-4.93 31.21-3.33 29.61-1.73 27.36-0.87 25.1 0 22.29 0L22.29 0ZM56.76-21.19L46.85-21.19 46.85 0 42.06 0 42.06-26 46.85-26 46.85-21.41Q46.9-22.36 47.29-23.21 47.68-24.05 48.33-24.67 48.97-25.29 49.83-25.65 50.68-26 51.66-26L51.66-26 56.76-26Q57.76-26 58.63-25.62 59.49-25.24 60.15-24.6 60.81-23.95 61.19-23.07 61.57-22.19 61.57-21.19L61.57-21.19 61.57-16.8 56.76-16.8 56.76-21.19ZM67.55 0L67.55-7.3 74.85-7.3 74.85 0 67.55 0ZM103.33-5L116.13-5Q119.62-5 121.5-6.88 123.38-8.76 123.38-12.26L123.38-12.26 123.38-22.75Q123.38-24.46 122.89-25.81 122.4-27.15 121.46-28.09 120.52-29.03 119.18-29.52 117.84-30 116.13-30L116.13-30 103.33-30 103.33-5ZM116.13 0L98.33 0 98.33-35.01 116.13-35.01Q118.94-35.01 121.19-34.14 123.45-33.28 125.05-31.68 126.65-30.08 127.52-27.81 128.38-25.54 128.38-22.75L128.38-22.75 128.38-12.26Q128.38-9.47 127.52-7.2 126.65-4.93 125.05-3.33 123.45-1.73 121.19-0.87 118.94 0 116.13 0L116.13 0ZM158.39-21.19L158.39-4.81Q158.39-3.81 158.01-2.93 157.63-2.05 156.98-1.4 156.34-0.76 155.47-0.38 154.6 0 153.6 0L153.6 0 140.69 0Q139.71 0 138.83-0.38 137.95-0.76 137.3-1.4 136.66-2.05 136.28-2.93 135.9-3.81 135.9-4.81L135.9-4.81 135.9-21.19Q135.9-22.19 136.28-23.07 136.66-23.95 137.3-24.6 137.95-25.24 138.83-25.62 139.71-26 140.69-26L140.69-26 153.6-26Q154.6-26 155.47-25.62 156.34-25.24 156.98-24.6 157.63-23.95 158.01-23.07 158.39-22.19 158.39-21.19L158.39-21.19ZM153.6-21.19L140.69-21.19 140.69-4.81 153.6-4.81 153.6-21.19ZM183.58-21.19L171.18-21.19 171.18-4.81 183.58-4.81 183.58-9.2 188.39-9.2 188.39-4.81Q188.39-3.81 188.01-2.93 187.63-2.05 186.98-1.4 186.34-0.76 185.46-0.38 184.58 0 183.58 0L183.58 0 171.18 0Q170.2 0 169.32-0.38 168.44-0.76 167.8-1.4 167.15-2.05 166.77-2.93 166.39-3.81 166.39-4.81L166.39-4.81 166.39-21.19Q166.39-22.19 166.77-23.07 167.15-23.95 167.8-24.6 168.44-25.24 169.32-25.62 170.2-26 171.18-26L171.18-26 183.58-26Q184.58-26 185.46-25.62 186.34-25.24 186.98-24.6 187.63-23.95 188.01-23.07 188.39-22.19 188.39-21.19L188.39-21.19 188.39-16.8 183.58-16.8 183.58-21.19ZM195.88-4.81L212.09-4.81 212.09-10.84 200.69-10.84Q199.69-10.84 198.81-11.22 197.93-11.6 197.28-12.24 196.64-12.89 196.26-13.77 195.88-14.65 195.88-15.65L195.88-15.65 195.88-21.19Q195.88-22.19 196.26-23.07 196.64-23.95 197.28-24.6 197.93-25.24 198.81-25.62 199.69-26 200.69-26L200.69-26 215.9-26 215.9-21.19 200.69-21.19 200.69-15.65 212.09-15.65Q213.09-15.65 213.96-15.27 214.83-14.89 215.49-14.25 216.14-13.6 216.52-12.72 216.9-11.84 216.9-10.84L216.9-10.84 216.9-4.81Q216.9-3.81 216.52-2.93 216.14-2.05 215.49-1.4 214.83-0.76 213.96-0.38 213.09 0 212.09 0L212.09 0 195.88 0 195.88-4.81Z" opacity="1" transform="matrix(1,0,0,1,0,0)" fill="#ffffff" class="wordmark-text-0" data-fill-palette-color="primary" id="text-0"></path></svg></g></svg></g></svg></g></svg></g><g><svg viewBox="0 0 149.74943728141596 149.74943728141596" height="149.74943728141596" width="149.74943728141596"><g><svg></svg></g><g id="icon-0"><svg viewBox="0 0 149.74943728141596 149.74943728141596" height="149.74943728141596" width="149.74943728141596"><g><rect width="136.16106241699117" height="136.16106241699117" x="6.7941874322123965" y="6.7941874322123965" fill="#00d1cd" data-fill-palette-color="accent"></rect><rect width="136.16106241699117" height="136.16106241699117" x="13.588374864424786" y="6.217248937900877e-15" fill="#00d1cd" opacity="0.5" data-fill-palette-color="accent"></rect></g><g transform="matrix(1,0,0,1,19.411964092035404,26.344375134929294)"><svg viewBox="0 0 110.92550909734516 97.06068701155738" height="97.06068701155738" width="110.92550909734516"><g><svg xmlns="http://www.w3.org/2000/svg" version="1.1" data-icon="terminal" data-container-transform="translate(0 1)" viewBox="0 1 16.001 14.001000000000001" x="0" y="0" width="110.92550909734516" height="97.06068701155738" class="icon-cg-0" data-fill-palette-color="quaternary" id="cg-0"><path d="M0.313 0c-0.2 0-0.313 0.087-0.313 0.188v13.625c0 0.1 0.113 0.188 0.313 0.188h15.5c0.1 0 0.188-0.113 0.188-0.313v-13.5c0-0.1-0.088-0.188-0.188-0.188h-15.5z m1.688 2l4 2v1l-4 2v-1l3-1.5-3-1.5v-1z m6 4h5v1h-5v-1z" transform="translate(0 1)" fill="#444444" data-fill-palette-color="quaternary"></path></svg></g></svg></g></svg></g></svg></g></svg></g></svg></g><defs></defs></svg><rect width="395.52" height="105.64174444635195" fill="none" stroke="none" visibility="hidden"></rect></g></svg></g></svg>